# xmcd
# 
# Track frame offsets:
#     150
#     31814
#     47385
#     65886
#     79410
#     93884
#     118690
#     149829
#     174840
#     207077
#     227083
#     240291
#     266802
#     280496
# 
# Disc length: 4197
# 
# Revision: 6
# Processed by: cddbd v1.5.2PL0 Copyright (c) Steve Scherf et al.
# Submitted via: fre:ac v1.0.31
# 
DISCID=c510630e
DTITLE=Stevie Ray Vaughan - Solos, Sessions and Encores
DYEAR=2007
DGENRE=Blues
TTITLE0=The Sky Is Crying [Live] (with Albert King, B.B. King and Paul Butterfield)
TTITLE1=Soulful Dress (with Marcia Ball)
TTITLE2=Don't Stop By The Creek, Son (with Johnny Copeland)
TTITLE3=Miami Strut (with A.C. Reed)
TTITLE4=Na-Na-Ne-Na-Nay (with Bill Carter)
TTITLE5=Going Down [Live] (with Jeff Beck)
TTITLE6=Oreo Cookie Blues [Live] (with Lonnie Mack)
TTITLE7=On The Run [Live] (with Katie Webster)
TTITLE8=Albert's Shuffle [Live] (with Albert Collins)
TTITLE9=Change It [Live] (with Jimmie Vaughan)
TTITLE10=You Can Have My Husband (with Lou Ann Barton)
TTITLE11=Texas Flood [Live] (with Bonnie Raitt)
TTITLE12=Pipeline (with Dick Dale)
TTITLE13=David Bowie - Let's Dance (David Bowie, featuring Stevie Ray Vaughan)
EXTD=YEAR: 2007
EXTT0=
EXTT1=
EXTT2=
EXTT3=
EXTT4=
EXTT5=
EXTT6=
EXTT7=
EXTT8=
EXTT9=
EXTT10=
EXTT11=
EXTT12=
EXTT13=
PLAYORDER=
